<?xml version="1.0" standalone="no"?>
<!DOCTYPE svg PUBLIC "-//W3C//DTD SVG 20010904//EN"
 "http://www.w3.org/TR/2001/REC-SVG-20010904/DTD/svg10.dtd">
<svg version="1.0" xmlns="http://www.w3.org/2000/svg"
 width="512.000000pt" height="512.000000pt" viewBox="0 0 512.000000 512.000000"
 preserveAspectRatio="xMidYMid meet">

<g transform="translate(0.000000,512.000000) scale(0.100000,-0.100000)"
fill="#000000" stroke="none">
<path d="M0 2560 l0 -2560 2560 0 2560 0 0 2560 0 2560 -2560 0 -2560 0 0
-2560z m2674 2100 c20 -14 49 -43 64 -64 l27 -39 0 -1037 0 -1036 -25 -37
c-14 -21 -43 -50 -64 -65 -35 -24 -49 -27 -116 -27 -67 0 -81 3 -116 27 -21
15 -50 44 -64 65 l-25 37 0 1037 0 1037 30 43 c45 64 104 91 186 87 50 -3 75
-10 103 -28z m-1280 -800 c20 -14 49 -43 64 -64 24 -35 27 -49 27 -117 0 -70
-3 -81 -30 -116 -16 -22 -60 -80 -98 -129 -181 -238 -287 -563 -287 -877 0
-425 154 -786 462 -1083 209 -201 461 -332 753 -391 126 -25 424 -25 550 0
202 41 391 120 562 233 107 71 275 231 357 342 332 441 390 1036 152 1537 -52
109 -111 203 -199 313 -71 89 -83 120 -75 202 6 58 41 113 94 150 54 36 153
40 211 8 123 -67 357 -443 447 -718 129 -397 126 -823 -11 -1230 -14 -41 -56
-138 -93 -215 -380 -783 -1246 -1208 -2105 -1034 -715 145 -1293 696 -1474
1404 -112 438 -66 899 129 1303 111 229 279 460 364 498 50 23 155 14 200 -16z"/>
</g>
</svg>
