<?xml version="1.0" standalone="no"?>
<!DOCTYPE svg PUBLIC "-//W3C//DTD SVG 20010904//EN"
 "http://www.w3.org/TR/2001/REC-SVG-20010904/DTD/svg10.dtd">
<svg version="1.0" xmlns="http://www.w3.org/2000/svg"
 width="512.000000pt" height="512.000000pt" viewBox="0 0 512.000000 512.000000"
 preserveAspectRatio="xMidYMid meet">

<g transform="translate(0.000000,512.000000) scale(0.100000,-0.100000)"
fill="#000000" stroke="none">
<path d="M2460 4668 c-25 -14 -58 -44 -75 -67 l-30 -43 0 -1037 0 -1037 25
-37 c14 -21 43 -50 64 -65 35 -24 49 -27 116 -27 67 0 81 3 116 27 21 15 50
44 64 65 l25 37 0 1036 0 1037 -27 39 c-44 62 -90 88 -167 92 -55 3 -74 -1
-111 -20z"/>
<path d="M1194 3876 c-85 -38 -253 -269 -364 -498 -219 -454 -249 -966 -84
-1456 37 -110 142 -322 211 -427 236 -359 587 -627 998 -764 481 -160 994
-125 1451 99 384 187 685 489 874 875 77 158 117 271 154 436 93 419 43 846
-145 1239 -102 211 -268 443 -352 488 -58 32 -157 28 -211 -8 -53 -37 -88 -92
-94 -150 -8 -83 4 -113 79 -207 176 -220 282 -459 325 -730 20 -131 15 -395
-11 -513 -117 -533 -477 -944 -978 -1119 -277 -97 -613 -106 -895 -25 -249 72
-469 203 -655 391 -278 280 -427 644 -427 1045 0 355 111 665 343 956 71 89
83 120 75 202 -6 58 -41 113 -94 150 -45 30 -150 39 -200 16z"/>
</g>
</svg>
